PathFileType	4	(X/Y/Z)	RBDS04\RBDS04runT45.trc
DataRate	CameraRate	NumFrames	NumMarkers	Units	OrigDataRate	OrigDataStartFrame	OrigNumFrames
150.000000	150.000000	4	33	mm	150.000000	2250	4500
Frame#	Time	L.ASIS			L.Heel.Bottom			L.Heel.Lateral			L.Heel.Top			L.Iliac.Crest			L.MT1			L.MT5			L.PSIS			L.Shank.Bottom.Lateral			L.Shank.Bottom.Medial			L.Shank.Top.Lateral			L.Shank.Top.Medial			L.Thigh.Bottom.Lateral			L.Thigh.Bottom.Medial			L.Thigh.Top.Lateral			L.Thigh.Top.Medial			R.ASIS			R.ASY			R.Heel.Bottom			R.Heel.Lateral			R.Heel.Top			R.Iliac.Crest			R.MT1			R.MT5			R.PSIS			R.Shank.Bottom.Lateral			R.Shank.Bottom.Medial			R.Shank.Top.Lateral			R.Shank.Top.Medial			R.Thigh.Bottom.Lateral			R.Thigh.Bottom.Medial			R.Thigh.Top.Lateral			R.Thigh.Top.Medial			
		X1	Y1	Z1	X2	Y2	Z2	X3	Y3	Z3	X4	Y4	Z4	X5	Y5	Z5	X6	Y6	Z6	X7	Y7	Z7	X8	Y8	Z8	X9	Y9	Z9	X10	Y10	Z10	X11	Y11	Z11	X12	Y12	Z12	X13	Y13	Z13	X14	Y14	Z14	X15	Y15	Z15	X16	Y16	Z16	X17	Y17	Z17	X18	Y18	Z18	X19	Y19	Z19	X20	Y20	Z20	X21	Y21	Z21	X22	Y22	Z22	X23	Y23	Z23	X24	Y24	Z24	X25	Y25	Z25	X26	Y26	Z26	X27	Y27	Z27	X28	Y28	Z28	X29	Y29	Z29	X30	Y30	Z30	X31	Y31	Z31	X32	Y32	Z32	X33	Y33	Z33	

2251	15	2218.033881106677	933.4725728112529	915.6746581837695	1733.739608232815	97.91086789153765	976.3361485165696	1765.995971970431	102.2709440073307	931.6356231379125	1759.11439102692	137.6435606350665	973.1208331476756	2160.488041694829	997.5195365166242	879.1965269282769	1935.358889447161	43.76934377393257	999.4001185407462	1896.265666108397	41.07804280541725	902.7512659552877	2065.816345352989	975.8811182362992	995.5120297086726	1870.924730700405	200.3362210880917	913.1647552659716	1835.843139939513	225.3567977755732	939.2109407706738	1910.15196807574	268.254367841149	893.2626665666437	1875.646866844164	297.3307505852271	921.6387388652421	2080.416310569511	581.4061780427346	852.3994746150352	2023.351823995624	585.3182401799133	897.8250582379458	2078.097797561678	691.5398064561944	843.9878569300475	2024.688226793093	695.8970572521016	887.588572749824	2237.590338363969	929.3749015850524	1105.989715108262	-503565042.3923409	-1400046038.040471	-4463002567.620329	1980.54134140192	422.8633937497754	1069.216843737665	2010.130630028556	402.652780145654	1109.619497303934	2024.529172601908	434.724802872544	1068.226597555762	2186.375498027886	990.0383368290139	1162.6316250704	2088.737650070312	238.8348019337064	1037.20367647213	2069.72063591921	261.7326757417687	1132.565858323337	2074.760507118268	974.9787579643995	1078.763335944722	2132.1414594	427.5939553165965	1119.112001498294	2116.549387918681	464.8028356218977	1082.704133628603	2199.515665853999	471.6734981195625	1132.360876616325	2184.051682410243	506.5633078251065	1094.3593807377	2363.725363535722	633.97287228621	1169.092121298695	2321.312377092125	596.3268056148828	1122.048773730714	2280.273525953951	703.691929899033	1188.276589683746	2237.061626326945	663.2463847548097	1149.354073565979	
2252	15.00666666666667	2220.352779058486	935.9510133337008	914.7329311281395	1712.822567587983	112.8879154367796	975.8152636375306	1745.00357167687	114.1394970590307	930.9943544712769	1740.972037427749	150.2668748439025	972.0301160467492	2167.440386860852	1002.697934856786	879.1672248806393	1907.34071056477	43.1653946361381	999.0419944885862	1868.336267457467	42.50359822235725	902.2735697391541	2068.298067287235	979.5361859853031	993.4838388713389	1851.154016847008	209.1358679880795	912.103887685746	1816.638833683935	233.8706739472334	939.1872586984575	1890.618350230128	277.1641242142292	893.0424702128536	1856.705636779037	305.9166478248457	922.4150349462874	2069.198998304346	587.3113137194532	853.3720172975612	2012.505701735297	593.7309173622737	898.9646449472672	2071.341885220138	697.423700126565	844.5605330497347	2018.461527399211	704.1170682259934	888.4908357507913	2239.776178663526	935.0556533773486	1104.138804603044	-504444323.7694332	-1402487447.897378	-4470790265.330173	1997.990499859422	401.9817539650225	1068.158273699912	2028.645502145016	384.2451988764653	1108.653617931755	2041.000872446206	417.0707629846182	1067.283435191399	2187.796403490817	995.7251120099492	1161.206912948414	2119.22641719406	226.0002905441209	1038.537227584723	2097.802266052255	248.3717493151046	1133.398298909446	2076.534481218105	979.3537584617648	1077.144555816412	2148.762346819266	417.9490134857296	1118.891246225767	2130.687400674977	453.7371233013845	1082.150730945261	2212.792912207577	466.84841675519	1132.143534675357	2195.034207675307	500.3743504578567	1093.857312599061	2370.411508487236	644.7899590230295	1168.725803296708	2328.158840081036	605.6809978993593	1122.739883083032	2285.532376887515	712.7653185130458	1188.294439543388	2242.961304941544	671.0972732098485	1150.087106222113	
2253	15.01333333333333	2222.857932178432	938.6222095224824	913.8221318532563	1694.323394764467	129.1417801365156	975.3359338557433	1726.136742696316	127.1462792190298	930.3821302605508	1725.304374982473	163.740741888759	970.990446899431	2174.406953140756	1007.841958974406	879.2535414216311	1880.284372763927	42.98027594580031	998.5581115920082	1841.321458787695	44.70215393161164	901.764317003619	2070.989718894643	983.3624281528702	991.563692543106	1833.26871232339	218.3442211845482	911.0022359842474	1799.229810240995	242.6465894197791	939.1206213163975	1872.807896332596	286.6072568138125	892.8801099473409	1839.393252012967	314.8952565973228	923.2369066198418	2058.81223417173	593.9016950508245	854.6264230495008	2002.633169348228	602.8244805041628	900.4382036403462	2065.24250072023	703.7910807935226	845.2498873470972	2013.058512994071	712.7888850504064	889.5909768352249	2242.018101370202	940.7215889015869	1102.32364951572	-505324628.0728889	-1404931694.334128	-4478587017.17588	2016.719731820669	380.7061329527569	1066.784513148022	2048.20745153564	365.4829083015911	1107.509368368468	2058.537521294345	398.9385937484842	1066.112149961345	2189.444080620572	1001.451338580707	1159.758136936716	2150.50109664182	213.6813873219109	1039.961820314518	2126.572623551782	235.2968552167721	1134.232539404054	2078.5366439325	983.7983545632034	1075.593662869986	2165.761258089409	407.8927330473839	1118.613234318831	2145.41157565223	442.063242194779	1081.447106509606	2226.072528708546	461.393370629503	1131.901826458263	2206.209201981552	493.3412228646825	1093.250934493014	2376.278987050662	654.8346321736376	1168.286981975041	2334.017749341255	614.3652199374953	1123.53002531728	2290.232486536355	721.4090169338057	1188.183753614896	2248.179850282613	678.6452444473821	1150.761881204182	
2254	15.02	2225.491357391805	941.4315776379777	912.9679764886122	1678.250134231583	146.4344059372537	974.938176802303	1709.372615949084	141.1340606535221	929.8336870239087	1712.01712796776	177.8752152881224	970.0389700676466	2181.101109318195	1012.843196814727	879.4193161006573	1854.314923971432	43.45090248485863	997.9868642729028	1815.334074362099	47.83257258156784	901.2967751072259	2073.817999179087	987.2986818268255	989.7737013072482	1817.215534089951	227.8309001808064	909.8926795253484	1783.570142156584	251.6065064405329	939.0092414148564	1856.734251449813	296.4017008795686	892.7695327193024	1823.732920214942	324.1390899128578	924.0646730299898	2049.332561952113	600.9866955774808	856.0915497170889	1993.782873370899	612.3814783318007	902.1510511770703	2059.847932791897	710.4800189809534	846.0023467497052	2008.491980313601	721.7259823742442	890.8106889419148	2244.235470651803	946.2345405915548	1100.615555417709	-506205955.8973716	-1407378778.997619	-4486392828.417651	2036.728854447778	359.1364111047364	1065.170824050715	2068.80553905024	346.4057880667868	1106.254622044442	2077.140677681114	380.4053975979873	1064.797033460381	2191.198764758789	1007.088701951257	1158.336583270009	2182.491121304803	201.9491650058217	1041.444482058608	2155.97625316966	222.4743521199972	1135.047154064571	2080.696547816335	988.2313396307165	1074.124667098649	2183.124222537563	397.4257334250095	1118.322800199031	2160.736411664726	429.815344579788	1080.642507751581	2239.363781136215	455.2644231594023	1131.673031387126	2217.618105126327	485.4515012181594	1092.577493590827	2381.298117972665	663.9028658241814	1167.772947004166	2338.874023523114	622.1755483018225	1124.384504453722	2294.32279040814	729.4323685208192	1187.903233179454	2252.663877624335	685.6989616834816	1151.313008234119	
